{
  "accessors": [
    {
      "bufferView": 2,
      "componentType": 5126,
      "count": 2266,
      "max": [
        0.2281336635351181,
        0.13334600627422333,
        0.11794924736022949
      ],
      "min": [
        -0.2281336635351181,
        -0.039219304919242859,
        -0.14615538716316223
      ],
      "type": "VEC3"
    },
    {
      "bufferView": 2,
      "byteOffset": 27192,
      "componentType": 5126,
      "count": 2266,
      "max": [
        0.99998706579208374,
        0.99929708242416382,
        0.98516112565994263
      ],
      "min": [
        -0.9998965859413147,
        -0.99892473220825195,
        -0.9977608323097229
      ],
      "type": "VEC3"
    },
    {
      "bufferView": 1,
      "componentType": 5126,
      "count": 2266,
      "max": [
        0.99453455209732056,
        1.0004860162734985
      ],
      "min": [
        2.2463500499725342e-06,
        0.036046981811523438
      ],
      "type": "VEC2"
    },
    {
      "bufferView": 0,
      "componentType": 5125,
      "count": 9690,
      "max": [
        2265
      ],
      "min": [
        0
      ],
      "type": "SCALAR"
    },
    {
      "bufferView": 2,
      "byteOffset": 54384,
      "componentType": 5126,
      "count": 600,
      "max": [
        0.18419988453388214,
        0.10620267689228058,
        0.14615538716316223
      ],
      "min": [
        -0.13627627491950989,
        -0.13334600627422333,
        -0.13172276318073273
      ],
      "type": "VEC3"
    },
    {
      "bufferView": 2,
      "byteOffset": 61584,
      "componentType": 5126,
      "count": 600,
      "max": [
        0.92595130205154419,
        0.89596247673034668,
        0.90256994962692261
      ],
      "min": [
        -0.92398631572723389,
        -0.98394334316253662,
        -0.9097365140914917
      ],
      "type": "VEC3"
    },
    {
      "bufferView": 1,
      "byteOffset": 18128,
      "componentType": 5126,
      "count": 600,
      "max": [
        0.98557835817337036,
        0.98364084959030151
      ],
      "min": [
        0.034082412719726562,
        0.014125424437224865
      ],
      "type": "VEC2"
    },
    {
      "bufferView": 0,
      "byteOffset": 38760,
      "componentType": 5125,
      "count": 2148,
      "max": [
        599
      ],
      "min": [
        0
      ],
      "type": "SCALAR"
    }
  ],
  "asset": {
    "extras": {
      "author": "joaobaltieri (https://sketchfab.com/joaobaltieri)",
      "license": "CC-BY-4.0 (http://creativecommons.org/licenses/by/4.0/)",
      "source": "https://sketchfab.com/3d-models/paladins-book-ancient-knights-secrets-07bc6364101c4bd4adaa3d0cee1aaa3e",
      "title": "Paladin's Book | Ancient Knight's Secrets"
    },
    "generator": "Sketchfab-8.75.0",
    "version": "2.0"
  },
  "bufferViews": [
    {
      "buffer": 0,
      "byteLength": 47352,
      "byteOffset": 0,
      "name": "floatBufferViews",
      "target": 34963
    },
    {
      "buffer": 0,
      "byteLength": 22928,
      "byteOffset": 47352,
      "byteStride": 8,
      "name": "floatBufferViews",
      "target": 34962
    },
    {
      "buffer": 0,
      "byteLength": 68784,
      "byteOffset": 70280,
      "byteStride": 12,
      "name": "floatBufferViews",
      "target": 34962
    }
  ],
  "buffers": [
    {
      "byteLength": 139064,
      "uri": "scene.bin"
    }
  ],
  "images": [
    {
      "uri": "textures/paladins_book_baseColor.png"
    },
    {
      "uri": "textures/paladins_book_emissive.png"
    },
    {
      "uri": "textures/paladin_pages_baseColor.png"
    },
    {
      "uri": "textures/paladin_pages_emissive.png"
    }
  ],
  "materials": [
    {
      "doubleSided": true,
      "emissiveFactor": [
        1,
        1,
        1
      ],
      "emissiveTexture": {
        "index": 1,
        "texCoord": 0
      },
      "name": "paladins_book",
      "pbrMetallicRoughness": {
        "baseColorFactor": [
          1,
          1,
          1,
          1
        ],
        "baseColorTexture": {
          "index": 0,
          "texCoord": 0
        },
        "metallicFactor": 0,
        "roughnessFactor": 0.83348300265965569
      }
    },
    {
      "alphaMode": "BLEND",
      "doubleSided": true,
      "emissiveFactor": [
        1,
        1,
        1
      ],
      "emissiveTexture": {
        "index": 3,
        "texCoord": 0
      },
      "name": "paladin_pages",
      "pbrMetallicRoughness": {
        "baseColorFactor": [
          1,
          1,
          1,
          1
        ],
        "baseColorTexture": {
          "index": 2,
          "texCoord": 0
        },
        "metallicFactor": 0,
        "roughnessFactor": 1
      }
    }
  ],
  "meshes": [
    {
      "name": "book_texturing_v2_book_paladins_book_0",
      "primitives": [
        {
          "attributes": {
            "NORMAL": 1,
            "POSITION": 0,
            "TEXCOORD_0": 2
          },
          "indices": 3,
          "material": 0,
          "mode": 4
        }
      ]
    },
    {
      "name": "book_texturing_v2_pages_paladin_pages_0",
      "primitives": [
        {
          "attributes": {
            "NORMAL": 5,
            "POSITION": 4,
            "TEXCOORD_0": 6
          },
          "indices": 7,
          "material": 1,
          "mode": 4
        }
      ]
    }
  ],
  "nodes": [
    {
      "children": [
        1
      ],
      "name": "RootNode (gltf orientation matrix)",
      "rotation": [
        -0.70710678118654746,
        -0,
        -0,
        0.70710678118654757
      ]
    },
    {
      "children": [
        2
      ],
      "name": "RootNode (model correction matrix)"
    },
    {
      "children": [
        3
      ],
      "matrix": [
        1,
        0,
        0,
        0,
        0,
        0,
        1,
        0,
        0,
        -1,
        0,
        0,
        0,
        0,
        0,
        1
      ],
      "name": "92c9cb85b8024f4aade34c5cb0149086.fbx"
    },
    {
      "children": [
        4,
        6
      ],
      "name": "RootNode"
    },
    {
      "children": [
        5
      ],
      "matrix": [
        1,
        0,
        0,
        0,
        0,
        -1.6292067939183141e-07,
        -0.99999999999998679,
        0,
        0,
        0.99999999999998679,
        -1.6292067939183141e-07,
        0,
        0,
        0,
        0,
        1
      ],
      "name": "book_texturing_v2_book"
    },
    {
      "mesh": 0,
      "name": "book_texturing_v2_book_paladins_book_0"
    },
    {
      "children": [
        7
      ],
      "matrix": [
        1,
        0,
        0,
        0,
        0,
        -1.6292067939183141e-07,
        -0.99999999999998679,
        0,
        0,
        0.99999999999998679,
        -1.6292067939183141e-07,
        0,
        0,
        0,
        0,
        1
      ],
      "name": "book_texturing_v2_pages"
    },
    {
      "mesh": 1,
      "name": "book_texturing_v2_pages_paladin_pages_0"
    }
  ],
  "samplers": [
    {
      "magFilter": 9729,
      "minFilter": 9987,
      "wrapS": 10497,
      "wrapT": 10497
    }
  ],
  "scene": 0,
  "scenes": [
    {
      "name": "OSG_Scene",
      "nodes": [
        0
      ]
    }
  ],
  "textures": [
    {
      "sampler": 0,
      "source": 0
    },
    {
      "sampler": 0,
      "source": 1
    },
    {
      "sampler": 0,
      "source": 2
    },
    {
      "sampler": 0,
      "source": 3
    }
  ]
}

